<?xml version="1.0" encoding="UTF-8" standalone="no"?>
<svg
   xmlns:dc="http://purl.org/dc/elements/1.1/"
   xmlns:cc="http://creativecommons.org/ns#"
   xmlns:rdf="http://www.w3.org/1999/02/22-rdf-syntax-ns#"
   xmlns:svg="http://www.w3.org/2000/svg"
   xmlns="http://www.w3.org/2000/svg"
   xmlns:sodipodi="http://sodipodi.sourceforge.net/DTD/sodipodi-0.dtd"
   xmlns:inkscape="http://www.inkscape.org/namespaces/inkscape"
   height="512pt"
   viewBox="0 0 512 512"
   width="512pt"
   version="1.1"
   id="svg8701"
   sodipodi:docname="check-mark.svg"
   inkscape:version="0.92.4 (5da689c313, 2019-01-14)">
  <metadata
     id="metadata8707">
    <rdf:RDF>
      <cc:Work
         rdf:about="">
        <dc:format>image/svg+xml</dc:format>
        <dc:type
           rdf:resource="http://purl.org/dc/dcmitype/StillImage" />
      </cc:Work>
    </rdf:RDF>
  </metadata>
  <defs
     id="defs8705" />
  <sodipodi:namedview
     pagecolor="#ffffff"
     bordercolor="#666666"
     borderopacity="1"
     objecttolerance="10"
     gridtolerance="10"
     guidetolerance="10"
     inkscape:pageopacity="0"
     inkscape:pageshadow="2"
     inkscape:window-width="1920"
     inkscape:window-height="1017"
     id="namedview8703"
     showgrid="false"
     inkscape:zoom="0.34570312"
     inkscape:cx="448.44808"
     inkscape:cy="557.03076"
     inkscape:window-x="-8"
     inkscape:window-y="-8"
     inkscape:window-maximized="1"
     inkscape:current-layer="svg8701" />
  <path
     d="m 369.16406,174.76953 c 7.8125,7.8125 7.8125,20.47656 0,28.28516 L 234.99219,337.23047 c -7.8125,7.80859 -20.47266,7.80859 -28.28516,0 l -63.87109,-63.875 c -7.8125,-7.8086 -7.8125,-20.47266 0,-28.28125 7.80859,-7.8125 20.47265,-7.8125 28.28125,0 l 49.73047,49.73047 120.03125,-120.03516 c 7.8125,-7.80859 20.47656,-7.80859 28.28515,0 z"
     id="path9869"
     style="fill:#062a36;fill-opacity:1" />
  <path
     style="stroke-width:1.33333337;fill:#c2c2c2;fill-opacity:1"
     d="M 341.33398 0 C 152.68814 0 -9.5963855e-17 152.6621 0 341.33398 C 0 529.97983 152.6621 682.66602 341.33398 682.66602 C 529.97983 682.66602 682.66602 530.00587 682.66602 341.33398 C 682.66602 152.68814 530.00587 1.5196433e-16 341.33398 0 z M 341.33398 53.333984 C 500.50587 53.333984 629.33398 182.14127 629.33398 341.33398 C 629.33398 500.50587 500.5267 629.33398 341.33398 629.33398 C 182.1621 629.33398 53.333984 500.5267 53.333984 341.33398 C 53.333984 182.1621 182.14127 53.333984 341.33398 53.333984 z "
     transform="scale(0.74999998)"
     id="path9867" />
  <path
     d="M 472,256"
     id="path8699" />
</svg>
