<?xml version="1.0" encoding="UTF-8" standalone="no"?>
<svg
   xmlns:dc="http://purl.org/dc/elements/1.1/"
   xmlns:cc="http://creativecommons.org/ns#"
   xmlns:rdf="http://www.w3.org/1999/02/22-rdf-syntax-ns#"
   xmlns:svg="http://www.w3.org/2000/svg"
   xmlns="http://www.w3.org/2000/svg"
   xmlns:sodipodi="http://sodipodi.sourceforge.net/DTD/sodipodi-0.dtd"
   xmlns:inkscape="http://www.inkscape.org/namespaces/inkscape"
   version="1.2"
   viewBox="0 0 107 38.666667"
   width="107"
   height="29"
   id="svg4542"
   sodipodi:docname="logo-footer.svg"
   inkscape:version="0.92.4 (5da689c313, 2019-01-14)">
  <metadata
     id="metadata4548">
    <rdf:RDF>
      <cc:Work
         rdf:about="">
        <dc:format>image/svg+xml</dc:format>
        <dc:type
           rdf:resource="http://purl.org/dc/dcmitype/StillImage" />
        <dc:title>New Project</dc:title>
      </cc:Work>
    </rdf:RDF>
  </metadata>
  <defs
     id="defs4546" />
  <sodipodi:namedview
     pagecolor="#ffffff"
     bordercolor="#666666"
     borderopacity="1"
     objecttolerance="10"
     gridtolerance="10"
     guidetolerance="10"
     inkscape:pageopacity="0"
     inkscape:pageshadow="2"
     inkscape:window-width="1920"
     inkscape:window-height="1017"
     id="namedview4544"
     showgrid="false"
     inkscape:zoom="8"
     inkscape:cx="34.779659"
     inkscape:cy="27.006411"
     inkscape:window-x="-8"
     inkscape:window-y="-8"
     inkscape:window-maximized="1"
     inkscape:current-layer="svg4542" />
  <title
     id="title4534">New Project</title>
  <style
     id="style4536">
		tspan { white-space:pre }
		.shp0 { fill: #ffffff } 
		.shp1 { fill: #ff5f00 } 
	</style>
  <path
     id="EduPlus "
     aria-label="EduPlus"
     d="m 41.235009,17.177223 v 3.1 h -7.6 v 5.14 h 8.91 v 3.18 h -12.86 V 9.3972223 h 12.84 v 3.2100007 h -8.89 v 4.57 z m 2.54,4.18 q 0,-3.33 1.49,-5.31 1.5,-1.98 4.1,-1.98 2.08,0 3.44,1.56 V 8.3472223 h 3.82 V 28.597223 h -3.44 l -0.18,-1.52 q -1.42,1.78 -3.67,1.78 -2.51,0 -4.04,-1.97 -1.52,-1.99 -1.52,-5.53 z m 3.81,0.28 q 0,2 0.7,3.07 0.7,1.07 2.03,1.07 1.77,0 2.49,-1.49 v -5.63 q -0.71,-1.49 -2.46,-1.49 -2.76,0 -2.76,4.47 z m 20.65,6.96 -0.11,-1.45 q -1.41,1.71 -3.9,1.71 -2.3,0 -3.51,-1.31 -1.2,-1.32 -1.22,-3.87 v -9.34 h 3.81 v 9.21 q 0,2.23 2.03,2.23 1.93,0 2.66,-1.35 v -10.09 h 3.82 v 14.26 z m 14.27,-7.51 h -4.52 v 7.51 h -2.53 V 9.3972223 h 7.08 q 3.149997,0 4.929994,1.6100007 1.789997,1.61 1.789997,4.26 0,2.8 -1.749997,4.31 -1.739997,1.51 -4.999994,1.51 z m -4.52,-9.6 v 7.53 h 4.55 q 2.029997,0 3.109997,-0.95 1.079997,-0.97 1.079997,-2.77 0,-1.72 -1.079997,-2.74 -1.08,-1.03 -2.959997,-1.07 z M 94.754994,8.3472223 V 28.597223 H 92.314997 V 8.3472223 Z m 12.759996,20.2500007 -0.05,-1.41 q -1.42,1.67 -4.18,1.67 -2.28,0 -3.480002,-1.31 -1.19,-1.34 -1.2,-3.93 v -9.28 h 2.440002 v 9.21 q 0,3.24 2.64,3.24 2.79,0 3.71,-2.08 v -10.37 h 2.44 v 14.26 z m 14.33,-3.78 q 0,-0.99 -0.75,-1.53 -0.74,-0.56 -2.59,-0.95 -1.85,-0.4 -2.94,-0.95 -1.09,-0.56 -1.61,-1.32 -0.52,-0.76 -0.52,-1.82 0,-1.75 1.48,-2.97 1.49,-1.21 3.8,-1.21 2.42,0 3.92,1.25 1.52,1.26 1.52,3.21 h -2.45 q 0,-1 -0.86,-1.73 -0.84,-0.72 -2.13,-0.72 -1.34,0 -2.09,0.58 -0.75,0.58 -0.75,1.51 0,0.89 0.7,1.33 0.7,0.45 2.52,0.86 1.83,0.41 2.96,0.98 1.14,0.56 1.68,1.37 0.55,0.79 0.55,1.93 0,1.92 -1.53,3.08 -1.53,1.14 -3.96,1.14 -1.72,0 -3.04,-0.6 -1.32,-0.61 -2.07,-1.69 -0.74,-1.09 -0.74,-2.36 h 2.44 q 0.07,1.23 0.98,1.95 0.92,0.71 2.43,0.71 1.38,0 2.21,-0.55 0.84,-0.57 0.84,-1.5 z"
     inkscape:connector-curvature="0"
     style="fill:#fffffe;fill-opacity:1" />
  <path
     id="Layer"
     class="shp0"
     d="m 4.8050092,19.507223 11.9199998,-3.97 v 8.38 c 0,0.32 -0.13,0.64 -0.36,0.87 -3.4,3.4 -7.9200002,5.27 -12.7299996,5.27 -4.8099996,0 -9.3299985,-1.87 -12.7299979,-5.27 -0.23,-0.23 -0.36,-0.55 -0.36,-0.87 v -8.38 l 11.919998,3.97 c 0.8199999,0.27 1.6399997,0.23 2.3399997,0 z"
     inkscape:connector-curvature="0"
     style="fill:#ffffff" />
  <path
     id="path4540"
     class="shp1"
     d="m -14.724989,23.477223 v -13.06 l 2.46,0.82 v 12.24 c 1.529999,0.52 2.6300005,1.96 2.6300005,3.66 v 6.59 c 0,0.68 -0.5500015,1.23 -1.2300015,1.23 h -5.269999 c -0.68,0 -1.23,-0.55 -1.23,-1.23 v -6.59 c 0,-1.7 1.11,-3.14 2.64,-3.66 z m 18.3599984,-6.24 c -0.13,0 -0.26,-0.02 -0.39,-0.06 l -19.7699984,-6.59 c -0.5,-0.17 -0.84,-0.6400004 -0.84,-1.1700007 0,-0.53 0.34,-1 0.84,-1.17 l 19.7699984,-6.59 c 0.25,-0.08 0.5300001,-0.08 0.7799998,0 l 19.7699998,6.59 c 0.5,0.17 0.84,0.64 0.84,1.17 0,0.5300003 -0.34,1.0000007 -0.84,1.1700007 l -19.7699998,6.59 c -0.1299997,0.04 -0.2599997,0.06 -0.3899998,0.06 z"
     inkscape:connector-curvature="0"
     style="fill:#ff5f00" />
</svg>
