<?xml version="1.0" encoding="UTF-8" standalone="no"?>
<svg
   xmlns:dc="http://purl.org/dc/elements/1.1/"
   xmlns:cc="http://creativecommons.org/ns#"
   xmlns:rdf="http://www.w3.org/1999/02/22-rdf-syntax-ns#"
   xmlns:svg="http://www.w3.org/2000/svg"
   xmlns="http://www.w3.org/2000/svg"
   xmlns:sodipodi="http://sodipodi.sourceforge.net/DTD/sodipodi-0.dtd"
   xmlns:inkscape="http://www.inkscape.org/namespaces/inkscape"
   height="512pt"
   viewBox="0 0 512 512"
   width="512pt"
   version="1.1"
   id="svg915"
   sodipodi:docname="grid.svg"
   inkscape:version="0.92.4 (5da689c313, 2019-01-14)">
  <metadata
     id="metadata921">
    <rdf:RDF>
      <cc:Work
         rdf:about="">
        <dc:format>image/svg+xml</dc:format>
        <dc:type
           rdf:resource="http://purl.org/dc/dcmitype/StillImage" />
      </cc:Work>
    </rdf:RDF>
  </metadata>
  <defs
     id="defs919" />
  <sodipodi:namedview
     pagecolor="#ffffff"
     bordercolor="#666666"
     borderopacity="1"
     objecttolerance="10"
     gridtolerance="10"
     guidetolerance="10"
     inkscape:pageopacity="0"
     inkscape:pageshadow="2"
     inkscape:window-width="1920"
     inkscape:window-height="1017"
     id="namedview917"
     showgrid="false"
     inkscape:zoom="0.34570313"
     inkscape:cx="341.33333"
     inkscape:cy="341.33333"
     inkscape:window-x="-8"
     inkscape:window-y="-8"
     inkscape:window-maximized="1"
     inkscape:current-layer="svg915" />
  <path
     d="m0 0h138.5v138.5h-138.5zm0 0"
     id="path897"
     style="fill:#ff5f00;fill-opacity:1" />
  <path
     d="m373.5 0h138.5v138.5h-138.5zm0 0"
     id="path899"
     style="fill:#ff5f00;fill-opacity:1" />
  <path
     d="m186.75 0h138.5v138.5h-138.5zm0 0"
     id="path901"
     style="fill:#ff5f00;fill-opacity:1" />
  <path
     d="m0 186.75h138.5v138.5h-138.5zm0 0"
     id="path903"
     style="fill:#ff5f00;fill-opacity:1" />
  <path
     d="m373.5 186.75h138.5v138.5h-138.5zm0 0"
     id="path905"
     style="fill:#ff5f00;fill-opacity:1" />
  <path
     d="m186.75 186.75h138.5v138.5h-138.5zm0 0"
     id="path907"
     style="fill:#ff5f00;fill-opacity:1" />
  <path
     d="m0 373.5h138.5v138.5h-138.5zm0 0"
     id="path909"
     style="fill:#ff5f00;fill-opacity:1" />
  <path
     d="m373.5 373.5h138.5v138.5h-138.5zm0 0"
     id="path911"
     style="fill:#ff5f00;fill-opacity:1" />
  <path
     d="m186.75 373.5h138.5v138.5h-138.5zm0 0"
     id="path913"
     style="fill:#ff5f00;fill-opacity:1" />
</svg>
